<?xml version="1.0" encoding="UTF-8"?>
<!DOCTYPE svg PUBLIC "-//W3C//DTD SVG 1.1//EN" "http://www.w3.org/Graphics/SVG/1.1/DTD/svg11.dtd">
<!-- Creator: CorelDRAW -->
<svg xmlns="http://www.w3.org/2000/svg" xml:space="preserve" width="210mm" height="297mm" style="shape-rendering:geometricPrecision; text-rendering:geometricPrecision; image-rendering:optimizeQuality; fill-rule:evenodd; clip-rule:evenodd"
viewBox="0 0 210 297"
 xmlns:xlink="http://www.w3.org/1999/xlink">
 <defs>
  <style type="text/css">
   <![CDATA[
    .fil1 {fill:none}
    .fil0 {fill:#00BFA5}
   ]]>
  </style>
 </defs>
 <g id="Camada_x0020_1">
  <metadata id="CorelCorpID_0Corel-Layer"/>
  <path class="fil0" d="M105.926 149.029l-0.209 0 -0.0741 -0.0714c0.2593,-0.3016 0.4154,-0.6932 0.4154,-1.1192 0,-0.9499 -0.7699,-1.7198 -1.7198,-1.7198 -0.9499,0 -1.7198,0.7699 -1.7198,1.7198 0,0.9499 0.7699,1.7198 1.7198,1.7198 0.426,0 0.8176,-0.1561 1.1192,-0.4154l0.0714 0.0741 0 0.209 1.3229 1.3203 0.3942 -0.3942 -1.3203 -1.3229 0.0001 -0.0001zm-1.5875 0c-0.6588,0 -1.1906,-0.5318 -1.1906,-1.1906 0,-0.6588 0.5318,-1.1906 1.1906,-1.1906 0.6588,0 1.1906,0.5318 1.1906,1.1906 0,0.6588 -0.5318,1.1906 -1.1906,1.1906z"/>
  <polygon class="fil1" points="101.825,145.325 108.175,145.325 108.175,151.675 101.825,151.675 "/>
 </g>
</svg>
